<svg xmlns="http://www.w3.org/2000/svg" xmlns:svg="http://www.w3.org/2000/svg" id="svg2" width="128" height="128" x="0" y="0" enable-background="new 0 0 986.951 395.98" version="1.1" viewBox="0 0 128 128" xml:space="preserve"><metadata id="metadata174"/><polygon id="polygon8" points="130.832 301.221 134.54 297.483 152.069 264.077 157.581 260.359 220.143 260.359 220.143 209.343 185.749 209.343 182.689 205.613 220.143 134.061 220.143 96.913 220.131 96.913 182.994 96.913 179.287 100.651 161.757 134.057 156.246 137.775 93.684 137.775 93.684 188.791 128.078 188.791 131.141 192.496 93.684 264.072 93.684 301.221 93.695 301.221" transform="matrix(0.62650508,0,0,0.62650508,-34.307105,-60.716487)" style="fill:#000;fill-opacity:1"/><g id="Construction" display="none" transform="translate(0,-267.98001)" style="display:none"><line id="line35" x1="225.09" x2="372.871" y1="340.436" y2="58.31" stroke-miterlimit="10" display="inline" style="display:inline;fill:none;stroke:#868686;stroke-width:.40000001;stroke-miterlimit:10;stroke-dasharray:2"/><line id="line37" x1="453.295" x2="601.077" y1="340.436" y2="58.31" stroke-miterlimit="10" display="inline" style="display:inline;fill:none;stroke:#868686;stroke-width:.40000001;stroke-miterlimit:10;stroke-dasharray:2"/><line id="line39" x1="539.566" x2="687.279" y1="340.435" y2="58.566" stroke-miterlimit="10" display="inline" style="display:inline;fill:none;stroke:#868686;stroke-width:.40000001;stroke-miterlimit:10;stroke-dasharray:2"/><line id="line41" x1="776.921" x2="924.703" y1="340.436" y2="58.31" stroke-miterlimit="10" display="inline" style="display:inline;fill:none;stroke:#868686;stroke-width:.40000001;stroke-miterlimit:10;stroke-dasharray:2"/><line id="line43" x1="110.935" x2="259.812" y1="342.528" y2="58.31" stroke-miterlimit="10" display="inline" style="display:inline;fill:none;stroke:#868686;stroke-width:.40000001;stroke-miterlimit:10;stroke-dasharray:2"/><line id="line45" x1="52.558" x2="201.435" y1="342.528" y2="58.31" stroke-miterlimit="10" display="inline" style="display:inline;fill:none;stroke:#868686;stroke-width:.40000001;stroke-miterlimit:10;stroke-dasharray:2"/><line id="line47" x1="67.071" x2="921.722" y1="188.778" y2="188.778" stroke-miterlimit="10" display="inline" style="display:inline;fill:none;stroke:#9c9b9b;stroke-width:.25;stroke-miterlimit:10;stroke-dasharray:2"/><line id="line49" x1="67.071" x2="921.722" y1="96.913" y2="96.913" stroke-miterlimit="10" display="inline" style="display:inline;fill:none;stroke:#9c9b9b;stroke-width:.25;stroke-miterlimit:10;stroke-dasharray:2"/><line id="line51" x1="67.071" x2="921.722" y1="301.221" y2="301.221" stroke-miterlimit="10" display="inline" style="display:inline;fill:none;stroke:#9c9b9b;stroke-width:.25;stroke-miterlimit:10;stroke-dasharray:2"/><line id="line53" x1="67.071" x2="921.722" y1="209.34" y2="209.34" stroke-miterlimit="10" display="inline" style="display:inline;fill:none;stroke:#9c9b9b;stroke-width:.25;stroke-miterlimit:10;stroke-dasharray:2"/><line id="line55" x1="354.463" x2="287.14" y1="340.435" y2="58.31" stroke-miterlimit="10" display="inline" style="display:inline;fill:none;stroke:#868686;stroke-width:.2;stroke-miterlimit:10;stroke-dasharray:2"/><line id="line57" x1="539.566" x2="472.663" y1="340.436" y2="60.07" stroke-miterlimit="10" display="inline" style="display:inline;fill:none;stroke:#868686;stroke-width:.2;stroke-miterlimit:10;stroke-dasharray:2"/><line id="line59" x1="754.541" x2="687.218" y1="340.436" y2="58.31" stroke-miterlimit="10" display="inline" style="display:inline;fill:none;stroke:#868686;stroke-width:.2;stroke-miterlimit:10;stroke-dasharray:2"/></g><g id="Guidelines" display="none" transform="translate(0,-267.98001)" style="display:none"><line id="line62" x1="27.071" x2="904.475" y1="188.778" y2="188.778" stroke-miterlimit="10" display="inline" style="display:inline;fill:none;stroke:#9c9b9b;stroke-width:.25;stroke-miterlimit:10;stroke-dasharray:2"/><line id="line64" x1="27.071" x2="93.684" y1="137.778" y2="137.778" stroke-miterlimit="10" display="inline" style="display:inline;fill:none;stroke:#9c9b9b;stroke-width:.25;stroke-miterlimit:10;stroke-dasharray:2"/><line id="line66" x1="220.143" x2="220.143" y1="96.906" y2="364.528" stroke-miterlimit="10" display="inline" style="display:inline;fill:none;stroke:#9c9b9b;stroke-width:.25;stroke-miterlimit:10;stroke-dasharray:2"/><line id="line68" x1="245.649" x2="245.649" y1="96.906" y2="364.528" stroke-miterlimit="10" display="inline" style="display:inline;fill:none;stroke:#9c9b9b;stroke-width:.25;stroke-miterlimit:10;stroke-dasharray:2"/><g id="g70" display="inline" style="display:inline"><path id="path72" d="m -0.272,163.624 3.727,5.654 -3.223,0 -2.196,-3.403 -2.197,3.403 -3.151,0 3.727,-5.654 -3.547,-5.401 3.223,0 1.999,3.151 2.053,-3.151 3.133,0 -3.548,5.401 z" style="fill:#6f6f6e"/></g><g id="g74" display="inline" style="display:inline"><g id="g76"><line id="line78" x1="12.807" x2="12.807" y1="139.028" y2="187.766" stroke-miterlimit="10" style="fill:none;stroke:#6f6f6e;stroke-width:.5;stroke-miterlimit:10"/><g id="g80"><circle id="circle82" cx="12.807" cy="139.094" r="1.316" style="fill:#6f6f6e"/></g><g id="g84"><circle id="circle86" cx="12.807" cy="187.7" r="1.316" style="fill:#6f6f6e"/></g></g></g><g id="g88" display="inline" style="display:inline"><path id="path90" d="m 215.662,386 c 0,-3.367 1.854,-5.708 4.573,-5.708 2.719,0 4.591,2.341 4.591,5.708 0,3.367 -1.873,5.707 -4.591,5.707 -2.718,0 -4.573,-2.339 -4.573,-5.707 z m 2.791,0 c 0,1.71 0.504,3.168 1.782,3.168 1.278,0 1.783,-1.458 1.783,-3.168 0,-1.711 -0.504,-3.17 -1.783,-3.17 -1.279,0 -1.782,1.46 -1.782,3.17 z" style="fill:#6f6f6e"/><path id="path92" d="m 226.84,388.287 c 0.937,0 1.675,0.721 1.675,1.675 0,0.954 -0.738,1.692 -1.675,1.692 -0.918,0 -1.656,-0.738 -1.656,-1.692 0,-0.954 0.738,-1.675 1.656,-1.675 z" style="fill:#6f6f6e"/><path id="path94" d="m 232.096,387.081 -2.322,0 0,-6.607 6.806,0 0,2.467 -4.483,0 0,1.656 c 0.342,-0.198 0.973,-0.396 1.675,-0.396 2.232,0 3.619,1.512 3.619,3.691 0,2.286 -1.584,3.816 -3.979,3.816 -2.502,0 -4.051,-1.477 -4.213,-3.727 l 2.809,0 c 0.09,0.773 0.576,1.297 1.422,1.297 0.756,0 1.278,-0.559 1.278,-1.387 0,-0.793 -0.486,-1.387 -1.333,-1.387 -0.541,0 -0.955,0.252 -1.279,0.577 z" style="fill:#6f6f6e"/><path id="path96" d="m 248.478,385.874 3.727,5.654 -3.223,0 -2.197,-3.402 -2.196,3.402 -3.151,0 3.727,-5.654 -3.547,-5.4 3.223,0 1.999,3.15 2.053,-3.15 3.133,0 -3.548,5.4 z" style="fill:#6f6f6e"/></g><g id="g98" display="inline" style="display:inline"><g id="g100"><line id="line102" x1="221.306" x2="245.139" y1="368.778" y2="368.778" stroke-miterlimit="10" style="fill:none;stroke:#6f6f6e;stroke-width:.5;stroke-miterlimit:10"/><g id="g104"><circle id="circle106" cx="221.372" cy="368.778" r="1.316" style="fill:#6f6f6e"/></g><g id="g108"><circle id="circle110" cx="245.073" cy="368.778" r="1.316" style="fill:#6f6f6e"/></g></g></g><g id="g112" display="inline" style="display:inline"><g id="g114"><line id="line116" x1="38.055" x2="38.055" y1="47.027" y2="95.766" stroke-miterlimit="10" style="fill:none;stroke:#6f6f6e;stroke-width:.5;stroke-miterlimit:10"/><g id="g118"><circle id="circle120" cx="38.055" cy="47.093" r="1.316" style="fill:#6f6f6e"/></g><g id="g122"><circle id="circle124" cx="38.055" cy="95.7" r="1.316" style="fill:#6f6f6e"/></g></g></g><g id="g126" display="inline" style="display:inline"><path id="path128" d="m 70.062,29.161 3.727,5.654 -3.223,0 -2.196,-3.403 -2.197,3.403 -3.151,0 3.727,-5.654 -3.547,-5.401 3.223,0 1.999,3.151 2.053,-3.151 3.133,0 -3.548,5.401 z" style="fill:#6f6f6e"/></g><g id="g130" display="inline" style="display:inline"><path id="path132" d="m 26.562,70.327 3.727,5.654 -3.223,0 -2.196,-3.403 -2.197,3.403 -3.151,0 3.727,-5.654 -3.547,-5.401 3.223,0 1.999,3.151 2.053,-3.151 3.133,0 -3.548,5.401 z" style="fill:#6f6f6e"/></g><g id="g134" display="inline" style="display:inline"><g id="g136"><line id="line138" x1="92.543" x2="43.805" y1="41.528" y2="41.528" stroke-miterlimit="10" style="fill:none;stroke:#6f6f6e;stroke-width:.5;stroke-miterlimit:10"/><g id="g140"><circle id="circle142" cx="92.478" cy="41.528" r="1.316" style="fill:#6f6f6e"/></g><g id="g144"><circle id="circle146" cx="43.871" cy="41.528" r="1.316" style="fill:#6f6f6e"/></g></g></g><rect id="rect148" width="8.124" height="51.02" x="16.805" y="137.887" display="inline" style="display:inline;fill:#d9d9d9"/><rect id="rect150" width="8.124" height="51.02" x="93.684" y="45.886" display="inline" style="display:inline;fill:#d9d9d9"/><rect id="rect152" width="8.124" height="51.02" x="896.35" y="45.886" display="inline" style="display:inline;fill:#d9d9d9"/><rect id="rect154" width="8.124" height="51.021" x="93.684" y="301.23" display="inline" style="display:inline;fill:#d9d9d9"/><rect id="rect156" width="8.124" height="51.021" x="896.35" y="301.23" display="inline" style="display:inline;fill:#d9d9d9"/><rect id="rect158" width="51.02" height="8.124" x="42.665" y="96.913" display="inline" style="display:inline;fill:#d9d9d9"/><rect id="rect160" width="51.02" height="8.124" x="42.665" y="293.091" display="inline" style="display:inline;fill:#d9d9d9"/><rect id="rect162" width="51.02" height="8.124" x="904.475" y="96.913" display="inline" style="display:inline;fill:#d9d9d9"/><rect id="rect164" width="51.02" height="8.124" x="904.475" y="293.091" display="inline" style="display:inline;fill:#d9d9d9"/><rect id="rect166" width="810.79" height="204.324" x="93.684" y="96.906" stroke-miterlimit="10" display="inline" style="display:inline;fill:none;stroke:#9c9b9b;stroke-width:.25;stroke-miterlimit:10;stroke-dasharray:2"/><rect id="rect168" width="912.83" height="306.363" x="42.665" y="45.886" stroke-miterlimit="10" display="inline" style="display:inline;fill:none;stroke:#9c9b9b;stroke-width:.25;stroke-miterlimit:10;stroke-dasharray:2"/></g></svg>