<svg xmlns="http://www.w3.org/2000/svg" xmlns:svg="http://www.w3.org/2000/svg" id="svg2" width="128" height="128" version="1.1" viewBox="0 0 128 128"><metadata id="metadata12"/><path id="path4" d="m 75.780126,56.89965 c -3.67927,0 -6.583959,3.16288 -6.583959,7.10035 0,3.93747 2.969239,7.10035 6.583958,7.10035 3.679281,0 6.58397,-3.16288 6.58397,-7.10035 0,-3.93747 -2.96924,-7.10035 -6.58397,-7.10035 z m -23.560257,0 c -3.679274,0 -6.583964,3.16288 -6.583964,7.10035 0,3.93747 2.969238,7.10035 6.583964,7.10035 3.679273,0 6.583963,-3.16288 6.583963,-7.10035 0.06455,-3.93747 -2.90469,-7.10035 -6.583963,-7.10035 z"/><path id="path6" d="M 107.21533,0 20.720121,0 C 13.426122,0 7.487645,5.93848 7.487645,13.23248 l 0,86.49521 c 0,7.29399 5.938477,13.23247 13.232476,13.23247 l 73.198184,0 -3.42108,-11.8124 8.26223,7.61674 7.810395,7.1649 13.94251,12.0706 0,-114.76752 C 120.44786,5.93848 114.50933,0 107.21533,0 Z M 82.299545,83.59052 c 0,0 -2.32375,-2.77559 -4.26021,-5.16389 8.45587,-2.3883 11.68331,-7.61675 11.68331,-7.61675 -2.6465,1.74282 -5.1639,2.96924 -7.4231,3.80838 -3.22743,1.35552 -6.32577,2.19465 -9.35956,2.77559 -6.196667,1.16187 -11.876949,0.83913 -16.718099,-0.0645 -3.679274,-0.71004 -6.842158,-1.67827 -9.488654,-2.77559 -1.484619,-0.58094 -3.098335,-1.29098 -4.712052,-2.19466 -0.193646,-0.1291 -0.387292,-0.19364 -0.580938,-0.32274 -0.129097,-0.0645 -0.193646,-0.1291 -0.258195,-0.1291 -1.161876,-0.64549 -1.807362,-1.09733 -1.807362,-1.09733 0,0 3.098336,5.09935 11.296016,7.5522 -1.93646,2.45285 -4.32476,5.29299 -4.32476,5.29299 -14.265255,-0.45184 -19.687343,-9.74685 -19.687343,-9.74685 0,-20.59102 9.295008,-37.30913 9.295008,-37.30913 9.295007,-6.9067 18.073625,-6.71306 18.073625,-6.71306 l 0.645487,0.77459 c -11.618759,3.29198 -16.91175,8.39132 -16.91175,8.39132 0,0 1.420071,-0.77458 3.808371,-1.80736 6.906707,-3.03379 12.393344,-3.80837 14.652547,-4.06657 0.387292,-0.0645 0.710035,-0.12909 1.097327,-0.12909 3.937469,-0.51639 8.391327,-0.64549 13.03883,-0.1291 6.132122,0.71003 12.716092,2.5174 19.429152,6.13212 0,0 -5.09935,-4.84115 -16.07262,-8.13313 l 0.90368,-1.03278 c 0,0 8.84317,-0.19364 18.07363,6.71306 0,0 9.294995,16.71811 9.294995,37.30913 0,-0.0645 -5.422075,9.23046 -19.687335,9.6823 z"/></svg>