<svg xmlns="http://www.w3.org/2000/svg" xmlns:xlink="http://www.w3.org/1999/xlink" width="32" height="32" version="1.1" viewBox="0 0 32 32"><path fill="#000" d="M0 27.712q0-1.76 1.248-3.008t3.008-1.248 3.008 1.248 1.248 3.008q0 1.792-1.248 3.024t-3.008 1.232-3.008-1.248-1.248-3.008zM0 16.992v-6.112q5.728 0 10.592 2.832t7.696 7.696 2.832 10.592h-6.144q0-6.208-4.384-10.592-4.416-4.416-10.592-4.416zM0 6.144v-6.144q6.496 0 12.416 2.544t10.208 6.832 6.832 10.208 2.544 12.416h-6.144q0-5.248-2.048-10.048t-5.52-8.256-8.256-5.504-10.032-2.048z"/></svg>